C:\Users\Nicos\Documents\OpenSimProjects\SprintingProject\Study1\PredictiveResults\IC_pred_Sprinting_optimum_26-October-2023__23-37-47_p02_maxVel_01___IKTD_Minus_4_GRF.mot
version=1
nRows=9
nColumns=127
inDegrees=yes
endheader
time	ground_force_vx	ground_force_vy	ground_force_vz	ground_force_px	ground_force_py	ground_force_pz	ground_torque_x	ground_torque_y	ground_torque_z	1_ground_force_vx	1_ground_force_vy	1_ground_force_vz	1_ground_force_px	1_ground_force_py	1_ground_force_pz	1_ground_torque_x	1_ground_torque_y	1_ground_torque_z	2_ground_force_vx	2_ground_force_vy	2_ground_force_vz	2_ground_force_px	2_ground_force_py	2_ground_force_pz	2_ground_torque_x	2_ground_torque_y	2_ground_torque_z	3_ground_force_vx	3_ground_force_vy	3_ground_force_vz	3_ground_force_px	3_ground_force_py	3_ground_force_pz	3_ground_torque_x	3_ground_torque_y	3_ground_torque_z	4_ground_force_vx	4_ground_force_vy	4_ground_force_vz	4_ground_force_px	4_ground_force_py	4_ground_force_pz	4_ground_torque_x	4_ground_torque_y	4_ground_torque_z	5_ground_force_vx	5_ground_force_vy	5_ground_force_vz	5_ground_force_px	5_ground_force_py	5_ground_force_pz	5_ground_torque_x	5_ground_torque_y	5_ground_torque_z	6_ground_force_vx	6_ground_force_vy	6_ground_force_vz	6_ground_force_px	6_ground_force_py	6_ground_force_pz	6_ground_torque_x	6_ground_torque_y	6_ground_torque_z	7_ground_force_vx	7_ground_force_vy	7_ground_force_vz	7_ground_force_px	7_ground_force_py	7_ground_force_pz	7_ground_torque_x	7_ground_torque_y	7_ground_torque_z	8_ground_force_vx	8_ground_force_vy	8_ground_force_vz	8_ground_force_px	8_ground_force_py	8_ground_force_pz	8_ground_torque_x	8_ground_torque_y	8_ground_torque_z	9_ground_force_vx	9_ground_force_vy	9_ground_force_vz	9_ground_force_px	9_ground_force_py	9_ground_force_pz	9_ground_torque_x	9_ground_torque_y	9_ground_torque_z	10_ground_force_vx	10_ground_force_vy	10_ground_force_vz	10_ground_force_px	10_ground_force_py	10_ground_force_pz	10_ground_torque_x	10_ground_torque_y	10_ground_torque_z	11_ground_force_vx	11_ground_force_vy	11_ground_force_vz	11_ground_force_px	11_ground_force_py	11_ground_force_pz	11_ground_torque_x	11_ground_torque_y	11_ground_torque_z	12_ground_force_vx	12_ground_force_vy	12_ground_force_vz	12_ground_force_px	12_ground_force_py	12_ground_force_pz	12_ground_torque_x	12_ground_torque_y	12_ground_torque_z	13_ground_force_vx	13_ground_force_vy	13_ground_force_vz	13_ground_force_px	13_ground_force_py	13_ground_force_pz	13_ground_torque_x	13_ground_torque_y	13_ground_torque_z
0.160396	-0.000000	0.000000	0.000000	0.526495	0.081750	0.439120	0.000000	0.000000	0.000000	-0.000000	0.000000	0.000000	0.537312	0.103940	0.458629	0.000000	0.000000	0.000000	-0.000000	0.000000	0.000000	0.547133	0.115685	0.454638	0.000000	0.000000	0.000000	-0.000000	0.000000	0.000000	0.544347	0.113542	0.432494	0.000000	0.000000	0.000000	-0.000000	0.000000	0.000000	0.562405	0.158787	0.482216	0.000000	0.000000	0.000000	-0.000000	0.000000	0.000000	0.550792	0.130257	0.448537	0.000000	0.000000	0.000000	-0.000000	0.000000	0.000000	0.565426	0.188546	0.424133	0.000000	0.000000	0.000000	-0.000000	0.000000	-0.000000	1.654007	0.113781	0.137166	0.000000	0.000000	0.000000	-0.000000	0.000000	-0.000000	1.614442	0.124392	0.115917	0.000000	0.000000	0.000000	-0.000000	0.000000	-0.000000	1.580724	0.126721	0.124433	0.000000	0.000000	0.000000	-0.000000	0.000000	-0.000000	1.581002	0.121662	0.144780	0.000000	0.000000	0.000000	-0.000000	0.000000	-0.000000	1.505000	0.148778	0.097143	0.000000	0.000000	0.000000	-0.000000	0.000000	-0.000000	1.552533	0.131236	0.129308	0.000000	0.000000	0.000000	-0.000000	0.000000	-0.000000	1.439770	0.149293	0.148807	0.000000	0.000000	0.000000
0.161043	-0.000000	0.000000	0.000000	0.531812	0.083654	0.438830	0.000000	0.000000	0.000000	-0.000000	0.000000	0.000000	0.542907	0.105786	0.458447	0.000000	0.000000	0.000000	-0.000000	0.000000	0.000000	0.552875	0.117520	0.454479	0.000000	0.000000	0.000000	-0.000000	0.000000	0.000000	0.550082	0.115411	0.432323	0.000000	0.000000	0.000000	-0.000000	0.000000	0.000000	0.568754	0.160534	0.482260	0.000000	0.000000	0.000000	-0.000000	0.000000	0.000000	0.556756	0.132085	0.448445	0.000000	0.000000	0.000000	-0.000000	0.000000	0.000000	0.572279	0.190344	0.424310	0.000000	0.000000	0.000000	-0.000000	0.000000	-0.000000	1.667693	0.113551	0.137643	0.000000	0.000000	0.000000	-0.000000	0.000000	-0.000000	1.627952	0.123983	0.116370	0.000000	0.000000	0.000000	-0.000000	0.000000	-0.000000	1.594199	0.126182	0.124887	0.000000	0.000000	0.000000	-0.000000	0.000000	-0.000000	1.594565	0.121141	0.145252	0.000000	0.000000	0.000000	-0.000000	0.000000	-0.000000	1.518111	0.147907	0.097545	0.000000	0.000000	0.000000	-0.000000	0.000000	-0.000000	1.565937	0.130586	0.129755	0.000000	0.000000	0.000000	-0.000000	0.000000	-0.000000	1.452889	0.148201	0.149226	0.000000	0.000000	0.000000
0.163089	-0.000000	0.000000	0.000000	0.549104	0.089622	0.438116	0.000000	0.000000	0.000000	-0.000000	0.000000	0.000000	0.561055	0.111578	0.458020	0.000000	0.000000	0.000000	-0.000000	0.000000	0.000000	0.571466	0.123273	0.454106	0.000000	0.000000	0.000000	-0.000000	0.000000	0.000000	0.568634	0.121261	0.431919	0.000000	0.000000	0.000000	-0.000000	0.000000	0.000000	0.589183	0.166018	0.482433	0.000000	0.000000	0.000000	-0.000000	0.000000	0.000000	0.576007	0.137809	0.448254	0.000000	0.000000	0.000000	-0.000000	0.000000	0.000000	0.594170	0.195951	0.424846	0.000000	0.000000	0.000000	-0.000000	0.000000	-0.000000	1.710578	0.112941	0.139149	0.000000	0.000000	0.000000	-0.000000	0.000000	-0.000000	1.670300	0.122801	0.117794	0.000000	0.000000	0.000000	-0.000000	0.000000	-0.000000	1.636453	0.124593	0.126317	0.000000	0.000000	0.000000	-0.000000	0.000000	-0.000000	1.637091	0.119616	0.146737	0.000000	0.000000	0.000000	-0.000000	0.000000	-0.000000	1.559258	0.145261	0.098798	0.000000	0.000000	0.000000	-0.000000	0.000000	-0.000000	1.607979	0.128648	0.131160	0.000000	0.000000	0.000000	-0.000000	0.000000	-0.000000	1.494082	0.144867	0.150534	0.000000	0.000000	0.000000
0.164571	-0.000000	0.000000	0.000000	0.562083	0.093899	0.437800	0.000000	0.000000	0.000000	-0.000000	0.000000	0.000000	0.574637	0.115735	0.457859	0.000000	0.000000	0.000000	-0.000000	0.000000	0.000000	0.585354	0.127395	0.453967	0.000000	0.000000	0.000000	-0.000000	0.000000	0.000000	0.582475	0.125442	0.431765	0.000000	0.000000	0.000000	-0.000000	0.000000	0.000000	0.604342	0.169953	0.482595	0.000000	0.000000	0.000000	-0.000000	0.000000	0.000000	0.590337	0.141904	0.448216	0.000000	0.000000	0.000000	-0.000000	0.000000	0.000000	0.610267	0.199943	0.425214	0.000000	0.000000	0.000000	-0.000000	0.000000	-0.000000	1.741276	0.112610	0.140235	0.000000	0.000000	0.000000	-0.000000	0.000000	-0.000000	1.700632	0.122052	0.118817	0.000000	0.000000	0.000000	-0.000000	0.000000	-0.000000	1.666728	0.123550	0.127343	0.000000	0.000000	0.000000	-0.000000	0.000000	-0.000000	1.667559	0.118624	0.147806	0.000000	0.000000	0.000000	-0.000000	0.000000	-0.000000	1.588773	0.143444	0.099686	0.000000	0.000000	0.000000	-0.000000	0.000000	-0.000000	1.638112	0.127353	0.132166	0.000000	0.000000	0.000000	-0.000000	0.000000	-0.000000	1.523646	0.142563	0.151460	0.000000	0.000000	0.000000
0.165219	-0.000000	0.000000	0.000000	0.567863	0.095754	0.437715	0.000000	0.000000	0.000000	-0.000000	0.000000	0.000000	0.580679	0.117539	0.457828	0.000000	0.000000	0.000000	-0.000000	0.000000	0.000000	0.591525	0.129181	0.453942	0.000000	0.000000	0.000000	-0.000000	0.000000	0.000000	0.588620	0.127251	0.431735	0.000000	0.000000	0.000000	-0.000000	0.000000	0.000000	0.611055	0.171660	0.482675	0.000000	0.000000	0.000000	-0.000000	0.000000	0.000000	0.596692	0.143678	0.448227	0.000000	0.000000	0.000000	-0.000000	0.000000	0.000000	0.617358	0.201666	0.425369	0.000000	0.000000	0.000000	-0.000000	0.000000	-0.000000	1.754569	0.112494	0.140707	0.000000	0.000000	0.000000	-0.000000	0.000000	-0.000000	1.713771	0.121752	0.119260	0.000000	0.000000	0.000000	-0.000000	0.000000	-0.000000	1.679846	0.123123	0.127786	0.000000	0.000000	0.000000	-0.000000	0.000000	-0.000000	1.680760	0.118221	0.148269	0.000000	0.000000	0.000000	-0.000000	0.000000	-0.000000	1.601570	0.142676	0.100068	0.000000	0.000000	0.000000	-0.000000	0.000000	-0.000000	1.651171	0.126816	0.132601	0.000000	0.000000	0.000000	-0.000000	0.000000	-0.000000	1.536469	0.141586	0.151858	0.000000	0.000000	0.000000
0.167265	-0.000000	0.000000	0.000000	0.586539	0.101560	0.437630	0.000000	0.000000	0.000000	-0.000000	0.000000	0.000000	0.600180	0.123192	0.457865	0.000000	0.000000	0.000000	-0.000000	0.000000	0.000000	0.611430	0.134765	0.453987	0.000000	0.000000	0.000000	-0.000000	0.000000	0.000000	0.608424	0.132899	0.431771	0.000000	0.000000	0.000000	-0.000000	0.000000	0.000000	0.632629	0.177002	0.482963	0.000000	0.000000	0.000000	-0.000000	0.000000	0.000000	0.617148	0.149219	0.448357	0.000000	0.000000	0.000000	-0.000000	0.000000	0.000000	0.640020	0.207033	0.425839	0.000000	0.000000	0.000000	-0.000000	0.000000	-0.000000	1.796082	0.112240	0.142184	0.000000	0.000000	0.000000	-0.000000	0.000000	-0.000000	1.754823	0.120912	0.120640	0.000000	0.000000	0.000000	-0.000000	0.000000	-0.000000	1.720843	0.121883	0.129168	0.000000	0.000000	0.000000	-0.000000	0.000000	-0.000000	1.722011	0.117060	0.149712	0.000000	0.000000	0.000000	-0.000000	0.000000	-0.000000	1.641597	0.140356	0.101242	0.000000	0.000000	0.000000	-0.000000	0.000000	-0.000000	1.691993	0.125229	0.133950	0.000000	0.000000	0.000000	-0.000000	0.000000	-0.000000	1.576592	0.138614	0.153081	0.000000	0.000000	0.000000
0.168747	-0.000000	0.000000	0.000000	0.600453	0.105715	0.437690	0.000000	0.000000	0.000000	-0.000000	0.000000	0.000000	0.614687	0.127238	0.457977	0.000000	0.000000	0.000000	-0.000000	0.000000	0.000000	0.626225	0.138749	0.454105	0.000000	0.000000	0.000000	-0.000000	0.000000	0.000000	0.623135	0.136923	0.431888	0.000000	0.000000	0.000000	-0.000000	0.000000	0.000000	0.648589	0.180816	0.483193	0.000000	0.000000	0.000000	-0.000000	0.000000	0.000000	0.632317	0.153169	0.448516	0.000000	0.000000	0.000000	-0.000000	0.000000	0.000000	0.656687	0.210845	0.426161	0.000000	0.000000	0.000000	-0.000000	0.000000	-0.000000	1.825668	0.112155	0.143229	0.000000	0.000000	0.000000	-0.000000	0.000000	-0.000000	1.784099	0.120401	0.121614	0.000000	0.000000	0.000000	-0.000000	0.000000	-0.000000	1.750090	0.121086	0.130140	0.000000	0.000000	0.000000	-0.000000	0.000000	-0.000000	1.751436	0.116323	0.150730	0.000000	0.000000	0.000000	-0.000000	0.000000	-0.000000	1.670184	0.138772	0.102058	0.000000	0.000000	0.000000	-0.000000	0.000000	-0.000000	1.721124	0.124182	0.134898	0.000000	0.000000	0.000000	-0.000000	0.000000	-0.000000	1.605261	0.136566	0.153929	0.000000	0.000000	0.000000
0.169395	-0.000000	0.000000	0.000000	0.606625	0.107514	0.437735	0.000000	0.000000	0.000000	-0.000000	0.000000	0.000000	0.621116	0.128990	0.458039	0.000000	0.000000	0.000000	-0.000000	0.000000	0.000000	0.632779	0.140471	0.454170	0.000000	0.000000	0.000000	-0.000000	0.000000	0.000000	0.629651	0.138661	0.431954	0.000000	0.000000	0.000000	-0.000000	0.000000	0.000000	0.655640	0.182465	0.483296	0.000000	0.000000	0.000000	-0.000000	0.000000	0.000000	0.639029	0.154875	0.448595	0.000000	0.000000	0.000000	-0.000000	0.000000	0.000000	0.664030	0.212489	0.426297	0.000000	0.000000	0.000000	-0.000000	0.000000	-0.000000	1.838448	0.112143	0.143677	0.000000	0.000000	0.000000	-0.000000	0.000000	-0.000000	1.796749	0.120203	0.122030	0.000000	0.000000	0.000000	-0.000000	0.000000	-0.000000	1.762731	0.120763	0.130555	0.000000	0.000000	0.000000	-0.000000	0.000000	-0.000000	1.764153	0.116027	0.151165	0.000000	0.000000	0.000000	-0.000000	0.000000	-0.000000	1.682549	0.138105	0.102404	0.000000	0.000000	0.000000	-0.000000	0.000000	-0.000000	1.733718	0.123750	0.135302	0.000000	0.000000	0.000000	-0.000000	0.000000	-0.000000	1.617664	0.135699	0.154288	0.000000	0.000000	0.000000
0.171440	-0.000000	0.000000	0.000000	0.626507	0.113129	0.437879	0.000000	0.000000	0.000000	-0.000000	0.000000	0.000000	0.641790	0.134458	0.458227	0.000000	0.000000	0.000000	-0.000000	0.000000	0.000000	0.653845	0.145831	0.454389	0.000000	0.000000	0.000000	-0.000000	0.000000	0.000000	0.650602	0.144069	0.432173	0.000000	0.000000	0.000000	-0.000000	0.000000	0.000000	0.678207	0.187596	0.483614	0.000000	0.000000	0.000000	-0.000000	0.000000	0.000000	0.660573	0.160184	0.448852	0.000000	0.000000	0.000000	-0.000000	0.000000	0.000000	0.687484	0.217598	0.426706	0.000000	0.000000	0.000000	-0.000000	0.000000	-0.000000	1.878233	0.112196	0.145047	0.000000	0.000000	0.000000	-0.000000	0.000000	-0.000000	1.836151	0.119669	0.123299	0.000000	0.000000	0.000000	-0.000000	0.000000	-0.000000	1.802116	0.119837	0.131820	0.000000	0.000000	0.000000	-0.000000	0.000000	-0.000000	1.803769	0.115188	0.152491	0.000000	0.000000	0.000000	-0.000000	0.000000	-0.000000	1.721105	0.136095	0.103450	0.000000	0.000000	0.000000	-0.000000	0.000000	-0.000000	1.772964	0.122482	0.136530	0.000000	0.000000	0.000000	-0.000000	0.000000	-0.000000	1.656356	0.133060	0.155371	0.000000	0.000000	0.000000
